<svg xmlns="http://www.w3.org/2000/svg" width="144" height="105" fill="none" viewBox="0 0 144 105"><path fill="#000" d="M98.7654 66.2215L101.744 65.6963L103.167 71.5877L99.4434 72.2441L98.7654 66.2215Z"/><rect width="71.074" height="27.22" x="66.308" y="78.087" fill="#000" rx="10.714" transform="rotate(-10 66.3076 78.0868)"/><path fill="#fff" d="M94.686 73.083L101.305 71.9159L98.3258 76.1701C97.4133 77.4733 95.3807 77.0227 95.1045 75.4559L94.686 73.083Z"/><path fill="#fff" d="M107.923 70.7489L101.305 71.916L105.559 74.8947C106.862 75.8072 108.618 74.6886 108.342 73.1219L107.923 70.7489Z"/><path fill="#fff" stroke="#fff" stroke-linejoin="round" stroke-width=".893" d="M123.357 86.4228C123.564 86.3862 123.764 86.3296 123.951 86.2536C124.144 86.1768 124.333 86.0891 124.517 85.9923L124.767 87.4112C124.578 87.5384 124.339 87.6581 124.044 87.7711C123.755 87.8865 123.433 87.9763 123.075 88.0394C122.659 88.1127 122.272 88.1118 121.916 88.0376C121.562 87.9581 121.262 87.7686 121.011 87.4697C120.765 87.1652 120.588 86.7131 120.482 86.1133L119.888 82.7429L119.007 83.0763L118.755 81.6447L119.637 81.3224L119.373 79.8252L121.218 79.1536L121.482 80.6524L123.376 79.9622L123.629 81.3939L121.734 82.0841L122.385 85.776C122.433 86.0431 122.543 86.2298 122.717 86.3361C122.893 86.4386 123.107 86.4668 123.357 86.4228Z"/><ellipse cx="73.803" cy="44.135" fill="#000" rx="12.098" ry="15.122" transform="rotate(-10 73.8026 44.135)"/><path stroke="#000" stroke-width="3.571" d="M119.186 28.4548C116.648 14.0613 104.414 4.18763 91.8592 6.40132C79.3048 8.615 71.1849 22.0778 73.7228 36.4713"/><circle cx="95.725" cy="40.27" r="26.464" fill="#08E8DE" transform="rotate(-10 95.7245 40.2695)"/><ellipse cx="121.786" cy="35.674" fill="#000" rx="12.098" ry="15.122" transform="rotate(-10 121.786 35.6742)"/><path fill="#000" d="M102.391 49.3146C101.238 46.9508 98.3873 45.9692 96.0235 47.1221C93.6598 48.275 92.6782 51.1258 93.831 53.4896C94.9839 55.8533 97.8347 56.8349 100.198 55.6821C102.562 54.5292 103.544 51.6784 102.391 49.3146ZM115.301 42.0243L97.7196 50.5996L98.5024 52.2046L116.084 43.6293L115.301 42.0243Z"/><path stroke="#000" stroke-width="3.571" d="M81.1895 30.8035C81.1895 30.8035 81.4675 44.4562 89.3843 43.0603C97.3011 41.6643 93.237 28.6792 93.237 28.6792"/><circle cx="42.479" cy="37.123" r="11.551" fill="#FF7DF3" transform="rotate(37.6789 42.4786 37.1228)"/><path fill="#FF7DF3" d="M29.5413 28.1405C29.2216 27.4778 29.7956 26.7346 30.5176 26.8764L36.0067 27.9547L31.9721 33.1788L29.5413 28.1405Z"/><path fill="#FFF000" d="M1.92347 73.0059L15.1649 59.4847L60.5369 55.5152C64.4667 55.1714 67.9313 58.0785 68.2751 62.0083L70.1786 83.7653C70.5224 87.6952 67.6153 91.1597 63.6854 91.5035L11.1143 96.1029C7.18447 96.4467 3.71995 93.5397 3.37613 89.6098L1.92347 73.0059Z"/><path fill="#FFAA1D" d="M13.1188 59.6637L13.5697 64.8168C13.9135 68.7467 11.0064 72.2112 7.07655 72.555L1.92347 73.0059L13.1188 59.6637Z"/><path fill="#FFF000" d="M73.3614 66.0659C74.0456 66.3363 74.1275 67.2718 73.5006 67.657L68.765 70.5664L68.1925 64.023L73.3614 66.0659Z"/></svg>